<?xml version="1.0" standalone="no"?>
<!DOCTYPE svg PUBLIC "-//W3C//DTD SVG 20010904//EN"
 "http://www.w3.org/TR/2001/REC-SVG-20010904/DTD/svg10.dtd">
<svg version="1.0" xmlns="http://www.w3.org/2000/svg"
 width="16.000000pt" height="16.000000pt" viewBox="0 0 16.000000 16.000000"
 preserveAspectRatio="xMidYMid meet">

<g transform="translate(0.000000,16.000000) scale(0.100000,-0.100000)"
fill="#000000" stroke="none">
<path d="M4 147 c-3 -8 -4 -43 -2 -78 l3 -64 75 0 75 0 0 75 0 75 -73 3 c-55
2 -74 -1 -78 -11z m76 -35 c0 -5 -10 -14 -22 -20 -15 -7 -17 -11 -8 -11 13 -1
13 -2 0 -11 -13 -8 -12 -10 3 -10 9 0 17 -4 17 -10 0 -5 -13 -10 -30 -10 -28
0 -30 2 -30 40 0 39 1 40 35 40 19 0 35 -4 35 -8z m70 -8 c0 -11 -6 -15 -19
-11 -11 3 -22 -1 -25 -8 -7 -18 5 -27 20 -14 8 7 14 7 19 -1 10 -16 -4 -30
-30 -30 -33 0 -49 31 -29 58 18 26 64 30 64 6z"/>
</g>
</svg>
